<?xml version="1.0" standalone="no"?>
<!DOCTYPE svg PUBLIC "-//W3C//DTD SVG 20010904//EN"
 "http://www.w3.org/TR/2001/REC-SVG-20010904/DTD/svg10.dtd">
<svg version="1.0" xmlns="http://www.w3.org/2000/svg"
 width="776.000000pt" height="207.000000pt" viewBox="0 0 776.000000 207.000000"
 preserveAspectRatio="xMidYMid meet">

<g transform="translate(0.000000,207.000000) scale(0.100000,-0.100000)"
fill="#000000" stroke="none">
<path d="M1425 1632 c-39 -21 -88 -50 -110 -64 -22 -14 -57 -27 -77 -31 l-37
-6 -3 52 -3 52 -135 0 -135 0 -5 -157 c-5 -147 -6 -158 -29 -182 -13 -14 -36
-28 -51 -31 -62 -14 -59 7 -60 -545 l-1 -505 730 -3 731 -2 -2 516 -3 517 -65
37 c-36 21 -83 48 -105 60 -22 12 -49 30 -60 39 -11 10 -36 27 -55 37 -19 10
-56 34 -82 52 -26 17 -51 32 -55 32 -4 0 -16 8 -27 18 -40 36 -230 144 -261
148 -22 4 -49 -6 -100 -34z m245 -134 c88 -57 193 -123 233 -148 211 -129 247
-155 257 -186 7 -20 11 -181 11 -427 0 -397 -2 -427 -35 -449 -17 -12 -274
-10 -281 2 -3 6 -16 10 -27 10 -18 0 -20 4 -14 38 3 20 6 50 6 66 0 19 11 38
34 60 18 17 41 43 50 57 9 15 33 31 55 37 61 19 74 41 79 137 l4 84 -53 24
c-43 19 -59 33 -78 68 -14 24 -33 56 -44 71 -17 22 -19 36 -13 82 l6 56 -28 0
c-16 0 -54 -8 -85 -19 -57 -18 -78 -19 -179 -4 -39 6 -71 5 -100 -3 -24 -7
-69 -18 -100 -24 -78 -15 -145 -63 -186 -131 -18 -30 -41 -58 -52 -63 -11 -5
-20 -15 -20 -23 0 -7 -4 -13 -10 -13 -5 0 -10 8 -10 19 0 11 -12 23 -31 31
-26 11 -33 11 -46 -2 -15 -16 -21 -78 -8 -97 3 -6 2 -11 -3 -11 -6 0 -13 -7
-16 -15 -9 -24 19 -29 55 -11 42 21 59 20 59 -3 0 -11 5 -23 10 -26 6 -3 10
-14 10 -24 0 -42 34 -125 65 -160 40 -44 97 -164 88 -186 -3 -9 -14 -20 -24
-25 -24 -13 -355 -13 -380 0 -18 10 -19 26 -19 458 l0 447 71 44 71 44 -2 106
c-1 58 -2 121 -1 139 l1 32 59 0 59 0 7 -36 c3 -20 5 -60 4 -90 -2 -30 0 -56
2 -59 3 -3 89 47 190 110 101 63 188 114 192 115 4 0 80 -46 167 -102z m144
-543 c8 -16 15 -34 17 -40 2 -5 19 -36 37 -67 25 -43 44 -62 77 -78 46 -22 55
-39 55 -107 0 -33 -5 -46 -26 -62 -15 -12 -32 -21 -39 -21 -6 0 -42 -28 -78
-63 -61 -57 -68 -69 -78 -120 -13 -63 -32 -82 -73 -71 -17 4 -29 17 -36 39
l-11 32 -111 0 -111 0 -15 -39 c-17 -43 -48 -57 -90 -42 -21 8 -28 21 -44 88
-15 65 -25 86 -61 125 -171 192 -46 453 236 494 66 9 85 8 156 -10 80 -20 82
-20 105 -2 13 11 35 23 48 28 21 8 23 5 26 -23 2 -17 9 -44 16 -61z m-769
-138 c0 -26 -20 -25 -23 2 -3 16 1 22 10 19 7 -3 13 -12 13 -21z m575 -483 c6
-14 10 -27 10 -28 0 -2 -18 -8 -41 -15 -32 -10 -51 -10 -90 0 -48 13 -55 21
-43 53 5 13 22 16 80 16 71 0 75 -1 84 -26z"/>
<path d="M1447 1403 c-36 -19 -67 -82 -67 -137 0 -131 192 -158 255 -36 28 55
15 122 -31 165 -22 20 -37 25 -78 24 -28 -1 -63 -8 -79 -16z m111 -39 c29 -20
55 -70 47 -93 -10 -31 -63 -71 -94 -71 -17 0 -42 11 -60 26 -84 70 17 201 107
138z"/>
<path d="M1535 970 c-5 -8 -26 -9 -65 -5 -58 7 -75 0 -65 -27 4 -10 32 -13
113 -12 91 0 107 3 110 17 2 11 -6 18 -25 23 -15 3 -35 8 -45 10 -9 3 -19 0
-23 -6z"/>
<path d="M1780 800 c0 -5 5 -10 10 -10 6 0 10 5 10 10 0 6 -4 10 -10 10 -5 0
-10 -4 -10 -10z"/>
<path d="M3004 1352 c-21 -24 -84 -180 -84 -207 0 -12 -16 -44 -35 -71 -42
-58 -45 -84 -11 -84 19 0 28 9 43 45 l18 45 90 0 90 0 28 -45 c24 -37 34 -45
59 -45 20 0 28 4 25 13 -42 104 -154 354 -162 359 -18 13 -45 9 -61 -10z m36
-84 c0 -6 7 -19 16 -29 9 -10 19 -34 24 -54 7 -32 5 -38 -17 -52 -20 -13 -29
-14 -44 -5 -10 7 -26 12 -34 12 -8 0 -15 4 -15 10 0 23 53 139 61 134 5 -3 9
-10 9 -16z"/>
<path d="M3333 1363 c-10 -3 -13 -51 -13 -189 l0 -184 30 0 30 0 0 130 0 131
33 -33 c17 -18 42 -54 55 -81 13 -26 27 -47 31 -47 4 0 31 37 61 83 l55 82 8
-50 c5 -27 11 -87 14 -132 4 -82 5 -83 31 -83 l27 0 -3 190 c-2 125 -6 190
-13 190 -33 0 -78 -34 -95 -72 -10 -22 -33 -51 -51 -65 l-34 -26 -28 27 c-16
15 -31 41 -35 57 -10 54 -61 89 -103 72z"/>
<path d="M3833 1358 c-6 -8 -9 -86 -9 -188 l1 -175 33 -3 32 -3 -2 188 c-3
182 -4 188 -24 191 -11 2 -25 -3 -31 -10z"/>
<path d="M4035 1346 c-13 -19 -15 -53 -13 -187 l3 -164 133 -3 132 -3 0 27 0
27 -75 -6 c-60 -4 -82 -2 -105 11 l-30 17 0 153 c0 127 -2 152 -15 152 -8 0
-22 -11 -30 -24z"/>
<path d="M4557 1362 c-23 -3 -33 -12 -48 -47 -19 -43 -70 -95 -93 -95 -6 0
-30 30 -52 68 -37 61 -44 67 -77 70 -45 4 -47 -8 -9 -57 74 -96 122 -199 122
-262 0 -46 2 -49 25 -49 24 0 25 2 25 75 l0 74 71 111 c40 61 70 112 68 113
-2 1 -17 1 -32 -1z"/>
<path d="M5257 1364 c-12 -13 5 -258 21 -302 19 -54 57 -76 132 -76 72 -1 118
25 148 84 19 39 22 60 22 167 0 67 -3 124 -7 126 -5 3 -18 1 -30 -4 -22 -8
-23 -13 -23 -130 0 -104 -3 -126 -20 -154 -29 -47 -70 -62 -115 -41 -56 27
-69 63 -73 209 -4 124 -5 127 -26 127 -13 0 -26 -3 -29 -6z"/>
<path d="M6266 1356 c-92 -34 -125 -84 -126 -188 0 -37 5 -70 10 -73 6 -3 10
-15 10 -25 0 -28 61 -69 121 -82 61 -12 111 -2 167 32 32 20 32 20 32 103 l0
84 -57 -4 c-88 -6 -103 -11 -103 -33 0 -17 7 -20 43 -20 36 0 45 -4 60 -29 16
-27 16 -30 -4 -54 -36 -47 -131 -48 -180 -3 -16 15 -32 45 -39 76 -30 127 73
215 193 165 32 -13 36 -13 53 6 15 17 16 22 3 34 -22 21 -136 28 -183 11z"/>
<path d="M2560 1175 l0 -185 30 0 30 0 0 80 0 80 95 0 c95 0 95 0 95 25 0 22
-4 25 -34 25 -19 0 -46 -4 -59 -9 -18 -7 -30 -6 -43 4 -11 8 -27 15 -36 15
-15 0 -18 9 -18 55 l0 55 110 0 c103 0 110 1 110 20 0 19 -7 20 -140 20 l-140
0 0 -185z"/>
<path d="M4857 1343 c-2 -10 -4 -92 -3 -183 l1 -165 95 -3 c154 -5 210 23 210
105 0 35 -6 49 -26 68 -15 14 -31 25 -36 25 -6 0 2 14 16 31 32 38 35 88 5
115 -18 16 -40 20 -139 22 -108 3 -119 2 -123 -15z m200 -45 c26 -24 31 -69 9
-87 -24 -20 -108 -18 -140 2 -25 17 -27 23 -22 60 3 23 5 43 5 45 1 1 29 2 63
2 50 0 66 -4 85 -22z m11 -155 c12 -10 24 -30 27 -44 5 -21 1 -31 -21 -48 -30
-24 -56 -26 -119 -10 -50 13 -57 25 -49 80 l7 39 67 0 c50 0 73 -5 88 -17z"/>
<path d="M5712 1347 c-6 -7 -12 -81 -13 -182 l-2 -170 82 -3 c102 -4 152 10
201 54 47 43 64 89 58 161 -9 106 -76 152 -224 153 -63 0 -95 -4 -102 -13z
m195 -53 c46 -23 66 -56 70 -117 2 -44 -1 -55 -25 -80 -52 -55 -120 -76 -164
-49 l-28 16 0 122 0 123 28 4 c38 6 78 0 119 -19z"/>
<path d="M6607 1353 c-4 -3 -7 -87 -7 -185 l0 -178 135 0 135 0 0 26 c0 24 -2
25 -37 20 -78 -13 -128 -10 -156 8 -25 17 -28 24 -25 65 l3 46 95 1 c85 2 95
4 95 20 0 16 -11 20 -75 25 -114 8 -122 13 -118 68 l3 46 108 3 c99 2 107 4
107 22 0 19 -7 20 -128 20 -71 0 -132 -3 -135 -7z"/>
<path d="M6926 1344 c-3 -8 -6 -18 -6 -20 0 -2 26 -4 58 -4 49 0 62 -4 81 -24
21 -22 22 -30 18 -127 -3 -57 -8 -121 -12 -141 -7 -37 -7 -38 24 -38 l31 0 0
160 0 159 63 3 c54 3 62 5 62 23 0 19 -8 20 -156 23 -136 2 -157 0 -163 -14z"/>
<path d="M4004 785 c-4 -9 -4 -42 0 -73 7 -61 -11 -155 -28 -149 -6 2 -50 53
-97 113 -89 113 -120 134 -149 99 -11 -13 -11 -25 0 -69 10 -42 10 -64 1 -102
-8 -33 -8 -60 -2 -82 5 -18 7 -48 4 -67 -5 -33 -4 -35 21 -35 25 0 26 2 27 68
1 37 4 93 8 125 l6 59 75 -93 c41 -51 85 -108 98 -126 18 -27 29 -33 58 -33
l34 0 -2 188 c-3 186 -3 187 -26 190 -13 2 -25 -3 -28 -13z"/>
<path d="M4203 788 c-4 -7 -8 -93 -8 -190 l0 -178 27 0 27 0 3 127 3 127 75
-93 c41 -51 86 -108 100 -126 19 -27 32 -34 58 -35 l32 0 0 186 c0 184 0 185
-21 182 -37 -5 -45 -30 -31 -97 11 -52 10 -63 -5 -95 -10 -19 -21 -36 -25 -36
-4 0 -46 51 -94 113 -49 61 -93 115 -99 119 -15 11 -33 9 -42 -4z"/>
<path d="M4906 793 c-4 -4 -59 -6 -122 -5 -86 2 -115 -1 -118 -10 -3 -7 -6
-91 -9 -185 l-4 -173 138 0 139 0 0 25 0 24 -79 -6 c-55 -4 -90 -2 -110 7 -29
11 -31 16 -31 61 l0 49 100 0 c89 0 100 2 100 18 -1 40 -14 47 -75 32 -49 -12
-60 -11 -90 3 -32 15 -35 20 -35 62 l0 45 110 0 c110 0 110 0 110 24 0 26 -12
40 -24 29z"/>
<path d="M2565 781 c-3 -5 -4 -88 -4 -185 l2 -176 28 0 c29 0 29 1 29 60 l0
60 60 0 c116 0 175 50 167 143 -7 80 -29 93 -164 101 -62 3 -115 1 -118 -3z
m190 -66 c25 -24 33 -68 17 -92 -4 -7 -23 -19 -43 -27 -28 -12 -42 -12 -72 -3
l-37 12 0 67 0 68 55 0 c46 0 60 -4 80 -25z"/>
<path d="M2956 777 c-17 -12 -18 -23 -11 -108 4 -52 8 -129 7 -171 l0 -78 134
0 c124 0 134 1 134 19 0 22 -46 32 -109 24 -23 -3 -54 0 -71 7 l-30 12 0 138
c0 174 -6 192 -54 157z"/>
<path d="M3423 780 c-13 -5 -29 -29 -42 -65 -12 -31 -21 -58 -21 -61 0 -15
-82 -174 -93 -181 -8 -4 -19 -18 -26 -30 -11 -22 -10 -23 27 -23 36 0 40 3 58
43 l19 42 88 3 87 3 28 -45 c23 -38 32 -45 59 -46 l31 0 -64 146 c-104 239
-101 234 -151 214z m42 -123 c38 -81 35 -87 -31 -87 -54 0 -56 1 -50 23 7 29
46 117 51 117 3 0 16 -24 30 -53z"/>
<path d="M5053 783 c-10 -7 -12 -54 -10 -185 l2 -176 28 -4 27 -5 0 69 0 68
43 0 c49 0 80 -26 109 -92 18 -39 43 -53 76 -41 20 8 19 11 -23 73 -38 56 -41
66 -28 75 48 30 65 52 70 92 8 58 -11 99 -50 113 -41 14 -228 24 -244 13z
m201 -64 c33 -26 35 -70 4 -99 -23 -22 -39 -24 -112 -14 l-46 7 0 63 0 64 64
0 c49 0 69 -5 90 -21z"/>
</g>
</svg>
